<svg width="15" height="18" viewBox="0 0 15 18" fill="none" xmlns="http://www.w3.org/2000/svg">
<g clip-path="url(#clip0_124_137)">
<path d="M10.9646 6.39117C11.1407 6.07269 11.4759 5.875 11.8398 5.875H13.1315C13.9302 5.875 14.4066 6.76514 13.9635 7.4297L9.375 14.3125L8.33205 15.8769C7.93623 16.4707 7.06377 16.4707 6.66795 15.8769L5.625 14.3125L3.75 11.5L1.03647 7.4297C0.593431 6.76515 1.06982 5.875 1.86852 5.875H3.1602C3.52411 5.875 3.85929 6.07269 4.03536 6.39117L6.62484 11.075C7.00533 11.7632 7.99468 11.7632 8.37516 11.075L10.9646 6.39117Z" fill="#FFEFD5"/>
</g>
<defs>
<clipPath id="clip0_124_137">
<rect width="15" height="16.25" fill="white" transform="translate(0 0.875)"/>
</clipPath>
</defs>
</svg>
