<svg width="35" height="35" viewBox="0 0 40 44" fill="none" xmlns="http://www.w3.org/2000/svg">
<path fill-rule="evenodd" clip-rule="evenodd" d="M26.1875 44H36.5V37.5V31L36.5 25.6L28.25 21.3H20H11.75L3.5 25.6L3.49999 28.575L3.49998 31.55L3.49997 37.5V44L13.8125 44H15.875L19.9999 44H24.1249H26.1875ZM13.8125 28.575C17.9375 22.075 22.0625 22.075 26.1875 28.575C30.3125 35.075 26.1875 44 26.1875 44H24.1249L15.875 44H13.8125C13.8125 44 9.68746 35.075 13.8125 28.575Z" fill="#FFFFFF"/>
<path fill-rule="evenodd" clip-rule="evenodd" d="M15.875 5.97499C20 0.799999 24.125 5.97499 24.125 5.97499L28.25 10.35L32.375 14.725C32.375 14.725 44.75 25.6 36.5 25.6L28.25 21.3H20H11.75L3.5 25.6C-4.75 25.6 7.625 14.725 7.625 14.725L11.75 10.35L15.875 5.97499Z" fill="#FFFFFF"/>
</svg>
