<svg width="20" height="20" viewBox="0 0 20 20" fill="none" xmlns="http://www.w3.org/2000/svg">
<g clip-path="url(#clip0_618_481)">
<path d="M10 2.50024C8.96484 2.50024 8.125 3.34009 8.125 4.37524V10.801C8.125 11.4768 7.84766 12.0471 7.52734 12.4612C7.11719 12.9924 6.875 13.6526 6.875 14.3752C6.875 16.1018 8.27344 17.5002 10 17.5002C11.7266 17.5002 13.125 16.1018 13.125 14.3752C13.125 13.6526 12.8828 12.9924 12.4727 12.4651C12.1523 12.051 11.875 11.4807 11.875 10.8049V4.37524C11.875 3.34009 11.0352 2.50024 10 2.50024ZM5.625 4.37524C5.625 1.96118 7.58203 0.000244141 10 0.000244141C12.418 0.000244141 14.375 1.95728 14.375 4.37524V10.7971C14.375 10.801 14.3789 10.8088 14.3828 10.8206C14.3906 10.844 14.4141 10.8831 14.4492 10.9299C15.1875 11.8831 15.625 13.0784 15.625 14.3713C15.625 17.4768 13.1055 19.9963 10 19.9963C6.89453 19.9963 4.375 17.4807 4.375 14.3752C4.375 13.0784 4.8125 11.8831 5.55078 10.9338C5.58594 10.887 5.60938 10.8479 5.61719 10.8245C5.62109 10.8127 5.625 10.8049 5.625 10.801V4.37524ZM11.875 14.3752C11.875 15.4104 11.0352 16.2502 10 16.2502C8.96484 16.2502 8.125 15.4104 8.125 14.3752C8.125 13.5588 8.64844 12.8635 9.375 12.6057V5.62524C9.375 5.28149 9.65625 5.00024 10 5.00024C10.3438 5.00024 10.625 5.28149 10.625 5.62524V12.6057C11.3516 12.8635 11.875 13.5588 11.875 14.3752Z" fill="#FFEFD5"/>
</g>
<defs>
<clipPath id="clip0_618_481">
<rect width="12.5" height="20" fill="white" transform="translate(3.75 0.000244141)"/>
</clipPath>
</defs>
</svg>
