<svg width="20" height="20" viewBox="0 0 20 20" fill="none" xmlns="http://www.w3.org/2000/svg">
<path d="M20 9.99258C20 12.7634 18.8794 15.2617 17.0633 17.0633C15.2606 18.88 12.7631 20.0003 9.99258 20.0003C7.23636 20.0003 4.73914 18.8797 2.9219 17.0633C1.1203 15.2617 0 12.7631 0 9.99258C0 7.23742 1.12057 4.73914 2.9219 2.92243C4.73914 1.1203 7.23636 0 9.99258 0C12.7631 0 15.2606 1.12057 17.0633 2.92243C18.8794 4.73914 20 7.23742 20 9.99258ZM16.2298 16.2303C17.8196 14.6411 18.819 12.4304 18.819 9.99258C18.819 7.55501 17.8196 5.35974 16.2298 3.75484C14.64 2.16558 12.4294 1.18074 9.99258 1.18074C7.55448 1.18074 5.35974 2.16558 3.75431 3.75484C2.16452 5.35974 1.18074 7.55501 1.18074 9.99258C1.18074 12.4304 2.16452 14.6411 3.75431 16.2303C5.35974 17.8201 7.55448 18.8198 9.99258 18.8198C12.4294 18.8198 14.64 17.8201 16.2298 16.2303Z" fill="#FFEFD5"/>
<path d="M9.3716 9.00883V2.3313H10.2647V8.96297C10.537 9.06928 10.7488 9.28109 10.871 9.55361H16.0942V10.447H10.8551C10.6735 10.8104 10.2949 11.0678 9.87157 11.0678C9.2653 11.0678 8.78149 10.5832 8.78149 9.97777C8.78123 9.55334 9.02326 9.17532 9.3716 9.00883Z" fill="#FFEFD5"/>
</svg>
